<?xml version="1.0" encoding="UTF-8"?>
<svg xmlns="http://www.w3.org/2000/svg" id="icon" xmlns:xlink="http://www.w3.org/1999/xlink" width="50pt" height="50pt" viewBox="0 0 100 100" version="1.1">
<g id="surface1">
<path style=" stroke:none;fill-rule:nonzero;fill:rgb(0%,0%,0%);fill-opacity:1;" d="M 24.734375 17 C 24.820312 17.054688 24.839844 17.820312 24.867188 23.011719 L 24.898438 28.964844 L 44.898438 28.984375 C 63.644531 29 64.90625 28.992188 64.984375 28.886719 C 65.046875 28.800781 65.066406 27.5 65.066406 22.933594 C 65.066406 18.480469 65.085938 17.074219 65.144531 17.011719 C 65.203125 16.953125 66.164062 16.933594 69.039062 16.933594 C 72.417969 16.933594 72.863281 16.945312 72.957031 17.039062 C 73.058594 17.132812 73.066406 20.140625 73.066406 49.132812 C 73.066406 80.699219 73.066406 81.125 72.9375 81.199219 C 72.777344 81.277344 17.078125 81.292969 16.945312 81.210938 C 16.832031 81.136719 16.828125 17.160156 16.941406 17.027344 C 17 16.945312 17.699219 16.933594 20.824219 16.933594 C 23.105469 16.933594 24.671875 16.960938 24.734375 17 Z M 45.964844 9.03125 C 46.546875 9.160156 46.777344 9.261719 47.277344 9.585938 C 48.390625 10.300781 48.933594 11.398438 48.933594 12.933594 C 48.933594 13.691406 48.777344 14.511719 48.597656 14.691406 C 48.566406 14.726562 48.53125 14.800781 48.53125 14.847656 C 48.53125 14.984375 47.984375 15.734375 47.699219 15.980469 C 47.332031 16.300781 46.851562 16.566406 46.332031 16.746094 C 45.953125 16.878906 45.773438 16.898438 44.933594 16.894531 C 44.144531 16.886719 43.890625 16.867188 43.566406 16.753906 C 41.886719 16.179688 40.933594 14.800781 40.933594 12.933594 C 40.933594 10.878906 42.171875 9.320312 44.066406 9.007812 C 44.339844 8.960938 44.613281 8.914062 44.664062 8.898438 C 44.820312 8.867188 45.519531 8.941406 45.964844 9.03125 Z M 43.964844 0.90625 C 43.859375 0.921875 43.511719 0.964844 43.199219 1.007812 C 40.804688 1.3125 38.417969 2.464844 36.679688 4.160156 C 35.585938 5.214844 34.574219 6.691406 34.039062 8 C 33.972656 8.167969 33.859375 8.425781 33.792969 8.578125 L 33.664062 8.859375 L 24.851562 8.886719 C 15.304688 8.90625 15.707031 8.894531 14.464844 9.28125 C 13.132812 9.699219 12.167969 10.285156 11.160156 11.292969 C 10.433594 12.019531 10.058594 12.53125 9.667969 13.328125 C 9.140625 14.371094 8.933594 15.132812 8.8125 16.433594 C 8.785156 16.726562 8.773438 31.558594 8.773438 49.398438 C 8.78125 78.382812 8.792969 81.898438 8.886719 82.464844 C 9.292969 84.957031 10.878906 87.164062 13.105469 88.335938 C 13.925781 88.765625 14.847656 89.058594 15.828125 89.191406 C 16.1875 89.246094 24.804688 89.265625 44.945312 89.265625 C 76.472656 89.265625 74.238281 89.292969 75.550781 88.859375 C 77.105469 88.335938 78.570312 87.265625 79.570312 85.917969 C 80.191406 85.078125 80.746094 83.792969 80.984375 82.632812 C 81.085938 82.136719 81.097656 79.605469 81.117188 49.367188 C 81.136719 14.152344 81.152344 16.011719 80.824219 14.867188 C 80.144531 12.5 78.484375 10.558594 76.378906 9.652344 C 75.519531 9.285156 75.539062 9.292969 75.097656 9.179688 C 74.019531 8.898438 74.144531 8.90625 65.011719 8.867188 L 56.191406 8.832031 L 56.058594 8.5 C 55.484375 7.085938 54.8125 5.945312 53.972656 4.988281 C 52.066406 2.804688 49.746094 1.507812 46.90625 1.027344 C 46.324219 0.933594 44.378906 0.847656 43.964844 0.90625 Z M 43.964844 0.90625 "/>
<path style=" stroke:none;fill-rule:nonzero;fill:rgb(0%,0%,0%);fill-opacity:1;" d="M 46.097656 46.433594 C 48.753906 46.9375 50.765625 48.859375 51.410156 51.5 C 51.617188 52.332031 51.597656 53.753906 51.371094 54.632812 C 50.820312 56.792969 49.210938 58.523438 47.050781 59.296875 C 46.597656 59.457031 45.417969 59.664062 44.933594 59.664062 C 44.445312 59.664062 43.265625 59.457031 42.8125 59.296875 C 41.503906 58.832031 40.359375 57.984375 39.53125 56.867188 C 39.117188 56.3125 38.6875 55.378906 38.492188 54.632812 C 38.257812 53.730469 38.246094 52.332031 38.460938 51.453125 C 39.09375 48.886719 41.105469 46.957031 43.707031 46.4375 C 44.339844 46.3125 45.457031 46.3125 46.097656 46.433594 Z M 43.597656 41.972656 C 41.132812 42.300781 39.03125 43.292969 37.273438 44.964844 C 36.386719 45.8125 35.585938 46.878906 35.058594 47.917969 C 34.691406 48.644531 34.132812 50.160156 34.132812 50.433594 C 34.132812 50.785156 34.558594 50.765625 26.984375 50.796875 L 19.964844 50.832031 L 19.667969 50.992188 C 18.519531 51.585938 18.105469 52.851562 18.671875 54 C 18.894531 54.433594 19.21875 54.753906 19.710938 55 L 20.03125 55.164062 L 27.03125 55.199219 L 34.03125 55.230469 L 34.078125 55.398438 C 34.464844 56.679688 34.597656 57.066406 34.867188 57.632812 C 35.613281 59.230469 36.8125 60.746094 38.117188 61.757812 C 39.246094 62.617188 40.820312 63.390625 42.160156 63.730469 C 43.1875 63.992188 43.558594 64.03125 44.933594 64.03125 C 46.304688 64.03125 46.679688 63.992188 47.707031 63.730469 C 49.046875 63.390625 50.617188 62.617188 51.746094 61.757812 C 53.03125 60.765625 54.230469 59.25 54.980469 57.683594 C 55.285156 57.046875 55.730469 55.738281 55.730469 55.492188 C 55.730469 55.410156 55.773438 55.3125 55.820312 55.273438 C 55.886719 55.226562 57.910156 55.199219 62.871094 55.183594 L 69.832031 55.164062 L 70.144531 55.019531 C 70.589844 54.8125 71.089844 54.324219 71.273438 53.910156 C 71.503906 53.390625 71.5 52.570312 71.257812 52.058594 C 71.050781 51.617188 70.683594 51.226562 70.265625 51 L 69.964844 50.832031 L 62.910156 50.796875 C 55.324219 50.765625 55.738281 50.785156 55.730469 50.4375 C 55.730469 50.160156 55.226562 48.792969 54.832031 47.984375 C 54.277344 46.871094 53.5 45.824219 52.519531 44.890625 C 50.804688 43.273438 48.671875 42.277344 46.210938 41.972656 C 45.230469 41.84375 44.546875 41.84375 43.597656 41.972656 Z M 43.597656 41.972656 "/>
</g>
</svg>
