<?xml version="1.0" standalone="no"?>
<!DOCTYPE svg PUBLIC "-//W3C//DTD SVG 20010904//EN"
 "http://www.w3.org/TR/2001/REC-SVG-20010904/DTD/svg10.dtd">
<svg version="1.0" xmlns="http://www.w3.org/2000/svg"
id="icon"
 width="1500.000000pt" height="1500.000000pt" viewBox="0 0 1500.000000 1500.000000"
 preserveAspectRatio="xMidYMid meet">
<metadata>
Created by potrace 1.10, written by Peter Selinger 2001-2011
</metadata>
<g transform="translate(0.000000,1500.000000) scale(0.100000,-0.100000)"
fill="#000000" stroke="none">
<path d="M6595 14864 c-16 -2 -68 -9 -115 -15 -359 -46 -717 -219 -978 -473
-164 -158 -316 -380 -396 -576 -10 -25 -27 -64 -37 -87 l-19 -42 -1322 -4
c-1432 -3 -1372 -1 -1558 -59 -200 -63 -345 -151 -496 -302 -109 -109 -165
-186 -224 -305 -79 -157 -110 -271 -128 -466 -4 -44 -6 -2269 -6 -4945 1
-4348 3 -4875 17 -4960 61 -374 299 -705 633 -881 123 -64 261 -108 408 -128
54 -8 1347 -11 4368 -11 4729 0 4394 -4 4591 61 233 78 453 239 603 441 93
126 176 319 212 493 15 74 17 454 20 4990 3 5282 5 5003 -44 5175 -102 355
-351 646 -667 782 -129 55 -126 54 -192 71 -162 42 -143 41 -1513 47 l-1323 5
-20 50 c-86 212 -187 383 -313 527 -286 327 -634 522 -1060 594 -87 14 -379
27 -441 18z m300 -1219 c87 -19 122 -34 197 -83 167 -107 248 -272 248 -502 0
-114 -23 -237 -50 -264 -5 -5 -10 -16 -10 -23 0 -21 -82 -133 -125 -170 -55
-48 -127 -88 -205 -115 -57 -20 -84 -23 -210 -22 -118 1 -156 4 -205 21 -252
86 -395 293 -395 573 0 308 186 542 470 589 41 7 82 14 90 16 23 5 128 -6 195
-20z m-3185 -1195 c13 -8 16 -123 20 -902 l5 -893 3000 -3 c2812 -2 3001 -1
3013 15 9 13 12 208 12 893 0 668 3 879 12 888 9 9 153 12 584 12 507 0 574
-2 588 -16 15 -14 16 -465 16 -4814 0 -4735 0 -4799 -19 -4810 -24 -12 -8379
-14 -8399 -2 -17 11 -18 9608 -1 9628 9 12 114 14 583 14 342 0 577 -4 586
-10z"/>
<path d="M6540 8704 c-370 -49 -685 -198 -949 -449 -133 -127 -253 -287 -332
-443 -55 -109 -139 -336 -139 -377 0 -53 64 -50 -1072 -55 l-1053 -5 -45 -24
c-172 -89 -234 -279 -149 -451 33 -65 82 -113 156 -150 l48 -25 1050 -5 1050
-5 7 -25 c58 -192 78 -250 118 -335 112 -240 292 -467 488 -619 169 -129 405
-245 606 -296 154 -39 210 -45 416 -45 206 0 262 6 416 45 201 51 437 167 606
296 193 149 373 376 485 611 46 96 113 292 113 329 0 12 6 27 13 33 10 7 314
11 1058 13 l1044 3 47 22 c67 31 142 104 169 166 35 78 34 201 -2 278 -31 66
-86 125 -149 159 l-45 25 -1058 5 c-1138 5 -1076 2 -1077 54 0 42 -76 247
-135 368 -83 167 -200 324 -347 464 -257 243 -577 392 -946 438 -147 19 -250
19 -392 0z m375 -669 c398 -76 700 -364 797 -760 31 -125 28 -338 -6 -470 -83
-324 -324 -584 -648 -700 -68 -24 -245 -55 -318 -55 -73 0 -250 31 -318 55
-196 70 -368 197 -492 365 -62 83 -127 223 -156 335 -35 135 -37 345 -5 477
95 385 397 674 787 752 95 19 263 19 359 1z"/>
</g>
</svg>
